v -0.068 0.403 -0.367
v -0.068 0.291 -0.367
v 0 0.189 -0.347
v 0.079 0.415 -0.447
v 0 0.494 -0.447
v 0 0.494 -0.367
v 0.18 0.302 -0.367
v -0.081 -0.39 -0.455
v 0.068 -0.359 -0.447
v 0.18 0.291 -0.367
v 0.068 0.155 -0.447
v 0.18 0.155 -0.447
v 0.068 0.223 -0.367
v -0.068 0.223 -0.367
v -0.034 0.223 -0.347
v 0.191 0.144 -0.367
v -0.068 -0.359 -0.367
v -0.068 0.155 -0.447
v -0.068 -0.359 -0.447
v -0.18 0.155 -0.447
v 0.068 0.291 -0.447
v 0.068 0.403 -0.447
v -0.18 0.291 -0.447
v -0.068 0.291 -0.447
v 0.034 0.223 -0.347
v 0 0.257 -0.347
v 0 0.291 -0.367
v -0.269 0.219 -0.447
v 0.269 0.224 -0.447
v 0.18 0.291 -0.447
v 0.191 0.302 -0.447
v 0 0.291 -0.447
v -0.068 0.223 -0.447
v -0.068 0.403 -0.447
v 0.079 0.403 -0.447
v -0.079 0.403 -0.447
v 0.269 0.224 -0.367
v 0.191 0.302 -0.367
v -0.079 0.415 -0.447
v -0.079 0.415 -0.367
v -0.269 0.219 -0.367
v 0.081 -0.39 -0.359
v 0.068 -0.359 -0.367
v -0.093 -0.5 -0.359
v -0.081 -0.39 -0.359
v 0.093 -0.5 -0.359
v 0.093 -0.5 -0.455
v 0.081 -0.39 -0.455
v -0.079 0.403 -0.367
v 0 0.257 -0.468
v -0.093 -0.5 -0.455
v -0.19 0.302 -0.447
v -0.18 0.302 -0.447
v 0.068 0.223 -0.447
v 0.18 0.302 -0.447
v -0.068 0.155 -0.367
v 0.068 0.155 -0.367
v 0 0.155 -0.367
v 0.18 0.155 -0.367
v 0.18 0.144 -0.367
v 0.068 0.291 -0.367
v -0.18 0.291 -0.367
v 0.068 0.403 -0.367
v 0.079 0.403 -0.367
v 0.079 0.415 -0.367
v -0.18 0.155 -0.367
v -0.18 0.144 -0.367
v -0.19 0.302 -0.367
v -0.18 0.302 -0.367
v 0 0.155 -0.447
v 0 0.189 -0.468
v 0.034 0.223 -0.468
v -0.191 0.144 -0.367
v -0.191 0.144 -0.447
v -0.18 0.144 -0.447
v 0.18 0.144 -0.447
v 0.191 0.144 -0.447
v -0.034 0.223 -0.468
vt 0.137 0.813
vt 0.137 0.68
vt 0.002 0.813
vt 0.896 0.677
vt 0.896 0.544
vt 0.761 0.677
vt 0.596 0.903
vt 0.597 0.863
vt 0.637 0.901
vt 0.635 0.86
vt 0.137 0.948
vt 0.137 0.816
vt 0.002 0.948
vt 0.827 0.813
vt 0.827 0.68
vt 0.692 0.813
vt 0.827 0.965
vt 0.827 0.951
vt 0.692 0.965
vt 0.982 0.541
vt 0.968 0.541
vt 0.982 0.409
vt 0.275 0.951
vt 0.002 0.982
vt 0.275 0.982
vt 0.965 0.813
vt 0.965 0.68
vt 0.933 0.813
vt 0.999 0.541
vt 0.985 0.541
vt 0.999 0.409
vt 0.827 0.982
vt 0.827 0.968
vt 0.692 0.982
vt 0.827 0.406
vt 0.692 0.406
vt 0.827 0.273
vt 0.896 0.541
vt 0.761 0.541
vt 0.896 0.409
vt 0.758 0.677
vt 0.623 0.677
vt 0.758 0.544
vt 0.413 0.677
vt 0.278 0.677
vt 0.413 0.544
vt 0.569 0.93
vt 0.57 0.836
vt 0.664 0.929
vt 0.965 0.27
vt 0.965 0.138
vt 0.83 0.27
vt 0.829 0.137
vt 0.829 0.269
vt 0.964 0.137
vt 0.275 0.948
vt 0.14 0.948
vt 0.275 0.816
vt 0.139 0.815
vt 0.274 0.815
vt 0.139 0.947
vt 0.275 0.135
vt 0.002 0.135
vt 0.275 0.002
vt 0.689 0.27
vt 0.689 0.002
vt 0.554 0.27
vt 0.691 0.967
vt 0.691 0.981
vt 0.826 0.967
vt 0.984 0.408
vt 0.998 0.408
vt 0.984 0.54
vt 0.76 0.543
vt 0.76 0.676
vt 0.895 0.543
vt 0.001 0.679
vt 0.001 0.812
vt 0.136 0.679
vt 0.277 0.543
vt 0.412 0.543
vt 0.277 0.676
vt 0.622 0.543
vt 0.757 0.543
vt 0.622 0.676
vt 0.664 0.834
vt 0.965 0.406
vt 0.965 0.273
vt 0.83 0.406
vt 0.829 0.272
vt 0.829 0.405
vt 0.964 0.272
vt 0.83 0.965
vt 0.965 0.951
vt 0.965 0.965
vt 0.999 0.965
vt 0.999 0.951
vt 0.985 0.965
vt 0.551 0.27
vt 0.416 0.27
vt 0.551 0.002
vt 0.275 0.544
vt 0.002 0.677
vt 0.275 0.677
vt 0.275 0.541
vt 0.002 0.541
vt 0.275 0.409
vt 0.554 0.677
vt 0.62 0.409
vt 0.62 0.677
vt 0.344 0.948
vt 0.278 0.948
vt 0.344 0.883
vt 0.413 0.27
vt 0.278 0.27
vt 0.413 0.002
vt 0.275 0.27
vt 0.275 0.138
vt 0.002 0.27
vt 0.347 0.948
vt 0.413 0.883
vt 0.413 0.948
vt 0.692 0.88
vt 0.827 0.816
vt 0.827 0.88
vt 0.83 0.135
vt 0.965 0.002
vt 0.965 0.135
vt 0.551 0.677
vt 0.551 0.544
vt 0.416 0.677
vt 0.14 0.813
vt 0.275 0.813
vt 0.275 0.68
vt 0.999 0.27
vt 0.985 0.27
vt 0.999 0.138
vt 0.965 0.88
vt 0.965 0.816
vt 0.83 0.88
vt 0.999 0.982
vt 0.999 0.968
vt 0.985 0.982
vt 0.827 0.883
vt 0.692 0.948
vt 0.827 0.948
vt 0.965 0.409
vt 0.965 0.541
vt 0.899 0.541
vt 0.896 0.813
vt 0.83 0.813
vt 0.896 0.68
vt 0.827 0.27
vt 0.827 0.138
vt 0.692 0.27
vt 0.982 0.68
vt 0.968 0.813
vt 0.982 0.813
vt 0.982 0.982
vt 0.968 0.982
vt 0.982 0.968
vt 0.551 0.951
vt 0.278 0.965
vt 0.551 0.965
vt 0.982 0.27
vt 0.982 0.002
vt 0.968 0.27
vt 0.758 0.541
vt 0.758 0.409
vt 0.623 0.541
vt 0.982 0.544
vt 0.968 0.677
vt 0.982 0.677
vt 0.982 0.965
vt 0.982 0.951
vt 0.968 0.965
vt 0.275 0.999
vt 0.275 0.985
vt 0.14 0.999
vt 0.139 0.984
vt 0.274 0.984
vt 0.139 0.998
vt 0.554 0.406
vt 0.689 0.273
vt 0.689 0.406
vt 0.827 0.135
vt 0.827 0.002
vt 0.692 0.135
vt 0.691 0.001
vt 0.691 0.134
vt 0.826 0.001
vt 0.691 0.679
vt 0.691 0.812
vt 0.826 0.679
vt 0.001 0.815
vt 0.001 0.947
vt 0.136 0.815
vt 0.967 0.408
vt 0.981 0.408
vt 0.967 0.54
vt 0.691 0.95
vt 0.691 0.964
vt 0.826 0.95
vt 0.413 0.982
vt 0.278 0.982
vt 0.413 0.968
vt 0.999 0.135
vt 0.999 0.002
vt 0.985 0.135
vt 0.553 0.001
vt 0.553 0.269
vt 0.688 0.001
vt 0.001 0.001
vt 0.274 0.001
vt 0.001 0.134
vt 0.551 0.813
vt 0.416 0.813
vt 0.551 0.68
vt 0.415 0.679
vt 0.55 0.679
vt 0.415 0.812
vt 0.76 0.408
vt 0.895 0.408
vt 0.76 0.54
vt 0.691 0.272
vt 0.826 0.272
vt 0.691 0.405
vt 0.899 0.813
vt 0.93 0.68
vt 0.93 0.813
vt 0.689 0.982
vt 0.554 0.982
vt 0.689 0.951
vt 0.929 0.679
vt 0.898 0.679
vt 0.898 0.812
vt 0.553 0.95
vt 0.553 0.981
vt 0.688 0.95
vt 0.413 0.541
vt 0.413 0.273
vt 0.278 0.541
vt 0.275 0.406
vt 0.002 0.406
vt 0.275 0.273
vt 0.984 0.001
vt 0.984 0.134
vt 0.998 0.001
vt 0.277 0.967
vt 0.412 0.967
vt 0.277 0.981
vt 0.551 0.541
vt 0.416 0.541
vt 0.551 0.273
vt 0.415 0.272
vt 0.55 0.272
vt 0.415 0.54
vt 0.001 0.981
vt 0.274 0.95
vt 0.001 0.95
vt 0.932 0.679
vt 0.932 0.812
vt 0.964 0.679
vt 0.689 0.813
vt 0.689 0.68
vt 0.554 0.813
vt 0.413 0.813
vt 0.413 0.68
vt 0.278 0.813
vt 0.999 0.677
vt 0.985 0.677
vt 0.999 0.544
vt 0.965 0.982
vt 0.965 0.968
vt 0.83 0.982
vt 0.598 0.865
vt 0.571 0.838
vt 0.637 0.862
vt 0.665 0.836
vt 0.277 0.272
vt 0.277 0.54
vt 0.412 0.272
vt 0.001 0.272
vt 0.274 0.272
vt 0.001 0.405
vt 0.982 0.948
vt 0.982 0.816
vt 0.968 0.948
vt 0.967 0.815
vt 0.967 0.947
vt 0.981 0.815
vt 0.665 0.931
vt 0.638 0.902
vt 0.982 0.406
vt 0.982 0.273
vt 0.968 0.406
vt 0.967 0.272
vt 0.967 0.405
vt 0.981 0.272
vt 0.001 0.137
vt 0.001 0.269
vt 0.274 0.137
vt 0.277 0.001
vt 0.412 0.001
vt 0.277 0.269
vt 0.277 0.882
vt 0.343 0.882
vt 0.277 0.947
vt 0.412 0.882
vt 0.346 0.947
vt 0.346 0.882
vt 0.826 0.815
vt 0.691 0.879
vt 0.691 0.815
vt 0.829 0.134
vt 0.829 0.001
vt 0.964 0.001
vt 0.967 0.676
vt 0.981 0.543
vt 0.967 0.543
vt 0.967 0.95
vt 0.981 0.95
vt 0.967 0.964
vt 0.001 0.54
vt 0.001 0.408
vt 0.274 0.408
vt 0.415 0.001
vt 0.415 0.269
vt 0.55 0.001
vt 0.829 0.95
vt 0.829 0.964
vt 0.964 0.95
vt 0.829 0.679
vt 0.895 0.679
vt 0.829 0.812
vt 0.984 0.95
vt 0.998 0.95
vt 0.984 0.964
vt 0.691 0.947
vt 0.826 0.882
vt 0.691 0.882
vt 0.898 0.54
vt 0.898 0.408
vt 0.964 0.408
vt 0.829 0.815
vt 0.829 0.879
vt 0.964 0.815
vt 0.139 0.679
vt 0.274 0.679
vt 0.139 0.812
vt 0.691 0.137
vt 0.691 0.269
vt 0.826 0.137
vt 0.967 0.812
vt 0.981 0.679
vt 0.967 0.679
vt 0.967 0.967
vt 0.981 0.967
vt 0.967 0.981
vt 0.277 0.964
vt 0.55 0.95
vt 0.277 0.95
vt 0.967 0.001
vt 0.967 0.269
vt 0.981 0.001
vt 0.622 0.408
vt 0.622 0.54
vt 0.757 0.408
vt 0.415 0.543
vt 0.55 0.543
vt 0.415 0.676
vt 0.001 0.543
vt 0.274 0.543
vt 0.001 0.676
vt 0.619 0.408
vt 0.553 0.676
vt 0.553 0.408
vt 0.553 0.405
vt 0.688 0.272
vt 0.553 0.272
vt 0.551 0.982
vt 0.416 0.982
vt 0.551 0.968
vt 0.415 0.967
vt 0.415 0.981
vt 0.55 0.967
vt 0.984 0.137
vt 0.984 0.269
vt 0.998 0.137
vt 0.984 0.967
vt 0.998 0.967
vt 0.984 0.981
vt 0.277 0.679
vt 0.277 0.812
vt 0.412 0.679
vt 0.553 0.679
vt 0.553 0.812
vt 0.688 0.679
vt 0.57 0.932
vt 0.597 0.904
vt 0.999 0.406
vt 0.999 0.273
vt 0.985 0.406
vt 0.984 0.272
vt 0.984 0.405
vt 0.998 0.272
vt 0.829 0.967
vt 0.829 0.981
vt 0.964 0.967
vt 0.984 0.543
vt 0.998 0.543
vt 0.984 0.676
vt 0.137 0.999
vt 0.002 0.999
vt 0.137 0.985
vt 0.001 0.984
vt 0.136 0.984
vt 0.001 0.998
vn -1 0 0
vn 0 0 1
vn 0.707 0.707 0
vn 0 0.246 -0.969
vn 1 0 0
vn 0 1 0
vn 0 -1 0
vn 0.454 -0.454 0.766
vn -0.454 -0.454 0.766
vn 0.716 -0.698 0
vn 0.454 0.454 0.766
vn -0.724 0.69 0
vn 0 0 -1
vn -0.707 0.707 0
vn -0.698 -0.716 0
vn -0.919 0.393 0
vn 0.92 0.393 0
vn -0.454 0.454 0.766
vn 0 0.246 0.969
vn 0.994 0.109 0
vn -0.454 0.454 -0.766
vn 0.454 0.454 -0.766
vn -0.994 0.109 0
vn 0.454 -0.454 -0.766
vn -0.454 -0.454 -0.766
s off
f 34/1/1 24/2/1 1/3/1
f 2/4/1 1/5/1 24/6/1
f 3/7/2 25/8/2 15/9/2
f 26/10/2 15/9/2 25/8/2
f 4/11/3 5/12/3 65/13/3
f 6/14/3 65/15/3 5/16/3
f 55/17/1 30/18/1 7/19/1
f 10/20/1 7/21/1 30/22/1
f 48/23/4 8/24/4 9/25/4
f 19/26/4 9/27/4 8/28/4
f 23/29/5 53/30/5 62/31/5
f 69/32/5 62/33/5 53/34/5
f 21/35/6 61/36/6 30/37/6
f 10/38/6 30/39/6 61/40/6
f 57/41/7 11/42/7 59/43/7
f 12/44/7 59/45/7 11/46/7
f 58/47/8 13/48/8 3/7/8
f 25/8/8 3/7/8 13/48/8
f 58/47/9 3/7/9 14/49/9
f 15/9/9 14/49/9 3/7/9
f 77/50/10 29/51/10 16/52/10
f 37/53/10 16/54/10 29/55/10
f 17/56/7 19/57/7 43/58/7
f 9/59/7 43/60/7 19/61/7
f 18/62/1 19/63/1 56/64/1
f 17/65/1 56/66/1 19/67/1
f 75/68/5 20/69/5 67/70/5
f 66/71/5 67/72/5 20/73/5
f 21/74/5 22/75/5 61/76/5
f 63/77/5 61/78/5 22/79/5
f 23/80/6 62/81/6 24/82/6
f 2/83/6 24/84/6 62/85/6
f 25/8/11 13/48/11 26/10/11
f 27/86/11 26/10/11 13/48/11
f 52/87/12 28/88/12 68/89/12
f 41/90/12 68/91/12 28/92/12
f 29/93/13 30/94/13 31/95/13
f 55/96/13 31/97/13 30/98/13
f 30/99/13 29/100/13 32/101/13
f 32/102/13 29/103/13 54/104/13
f 54/105/13 29/106/13 70/107/13
f 70/108/13 29/109/13 11/110/13
f 70/111/2 11/112/2 18/113/2
f 18/114/13 11/115/13 19/116/13
f 9/117/13 19/118/13 11/119/13
f 33/120/13 70/121/13 18/122/13
f 20/123/13 33/124/13 18/125/13
f 28/126/13 33/127/13 20/128/13
f 23/129/13 33/130/13 28/131/13
f 32/132/13 33/133/13 23/134/13
f 52/135/13 23/136/13 28/137/13
f 24/138/2 32/139/2 23/140/2
f 53/141/13 23/142/13 52/143/13
f 24/144/13 22/145/13 32/146/13
f 22/147/13 21/148/13 32/149/13
f 21/150/2 30/151/2 32/152/2
f 34/153/13 22/154/13 24/155/13
f 34/156/13 4/157/13 22/158/13
f 35/159/13 22/160/13 4/161/13
f 36/162/13 4/163/13 34/164/13
f 39/165/13 4/166/13 36/167/13
f 5/168/13 4/169/13 39/170/13
f 28/171/13 20/172/13 74/173/13
f 75/174/13 74/175/13 20/176/13
f 77/177/13 76/178/13 29/179/13
f 12/180/13 29/181/13 76/182/13
f 11/183/13 29/184/13 12/185/13
f 29/186/3 31/187/3 37/188/3
f 38/189/3 37/190/3 31/191/3
f 5/192/14 39/193/14 6/194/14
f 40/195/14 6/196/14 39/197/14
f 12/198/1 76/199/1 59/200/1
f 60/201/1 59/202/1 76/203/1
f 49/204/7 36/205/7 1/206/7
f 34/207/7 1/208/7 36/209/7
f 9/210/5 11/211/5 43/212/5
f 57/213/5 43/214/5 11/215/5
f 41/216/15 28/217/15 73/218/15
f 74/219/15 73/220/15 28/221/15
f 66/222/7 20/223/7 56/224/7
f 18/225/7 56/226/7 20/227/7
f 8/228/16 45/229/16 19/230/16
f 17/231/16 19/232/16 45/233/16
f 48/234/17 9/235/17 42/236/17
f 43/237/17 42/238/17 9/239/17
f 44/240/2 46/241/2 45/242/2
f 42/243/2 45/244/2 46/245/2
f 63/246/7 22/247/7 64/248/7
f 35/249/7 64/250/7 22/251/7
f 44/252/7 51/253/7 46/254/7
f 47/255/7 46/256/7 51/257/7
f 14/49/18 15/9/18 27/86/18
f 26/10/18 27/86/18 15/9/18
f 45/258/19 42/259/19 17/260/19
f 43/261/19 17/262/19 42/263/19
f 47/264/20 48/265/20 46/266/20
f 42/267/20 46/268/20 48/269/20
f 39/270/1 36/271/1 40/272/1
f 49/273/1 40/274/1 36/275/1
f 78/276/21 33/277/21 50/278/21
f 32/279/21 50/278/21 33/277/21
f 47/280/13 51/281/13 48/282/13
f 8/283/13 48/284/13 51/285/13
f 52/286/6 68/287/6 53/288/6
f 69/289/6 53/290/6 68/291/6
f 54/292/22 72/293/22 32/279/22
f 50/278/22 32/279/22 72/293/22
f 55/294/6 7/295/6 31/296/6
f 38/297/6 31/298/6 7/299/6
f 17/300/2 43/301/2 56/302/2
f 57/303/2 56/304/2 43/305/2
f 58/306/2 56/307/2 57/308/2
f 13/309/2 58/310/2 57/311/2
f 59/312/2 13/313/2 57/314/2
f 13/315/2 59/316/2 37/317/2
f 37/318/2 59/319/2 16/320/2
f 60/321/2 16/322/2 59/323/2
f 27/324/2 13/325/2 37/326/2
f 10/327/2 27/328/2 37/329/2
f 38/330/2 10/331/2 37/332/2
f 61/333/2 27/334/2 10/335/2
f 7/336/2 10/337/2 38/338/2
f 61/339/2 1/340/2 27/341/2
f 1/342/2 2/343/2 27/344/2
f 2/345/2 62/346/2 27/347/2
f 14/348/2 27/349/2 62/350/2
f 63/351/2 1/352/2 61/353/2
f 63/354/2 40/355/2 1/356/2
f 49/357/2 1/358/2 40/359/2
f 64/360/2 40/361/2 63/362/2
f 65/363/2 40/364/2 64/365/2
f 6/366/2 40/367/2 65/368/2
f 62/369/2 41/370/2 14/371/2
f 14/372/2 41/373/2 58/374/2
f 58/375/2 41/376/2 56/377/2
f 56/378/2 41/379/2 66/380/2
f 66/381/2 41/382/2 67/383/2
f 73/384/2 67/385/2 41/386/2
f 68/387/2 41/388/2 62/389/2
f 69/390/2 68/391/2 62/392/2
f 8/393/23 51/394/23 45/395/23
f 44/396/23 45/397/23 51/398/23
f 70/399/24 71/400/24 54/292/24
f 72/293/24 54/292/24 71/400/24
f 71/400/13 78/276/13 72/293/13
f 50/278/13 72/293/13 78/276/13
f 73/401/7 74/402/7 67/403/7
f 75/404/7 67/405/7 74/406/7
f 35/407/5 4/408/5 64/409/5
f 65/410/5 64/411/5 4/412/5
f 60/413/7 76/414/7 16/415/7
f 77/416/7 16/417/7 76/418/7
f 70/399/25 33/277/25 71/400/25
f 78/276/25 71/400/25 33/277/25
